# xmcd CD database file
#
# Track frame offsets:
#	150
#	1762
#	15579
#	28281
#	47571
#	63956
#	77562
#	97971
#	117544
#	136997
#	154502
#	172142
#	187876
#	204929
#	228926
#	242666
#	262398
#	276796
#	292479
#	312558
#	321043
#	329226
#
# Disc length: 4564 seconds
#
# Revision: 2
# Processed by: cddbd v1.5.2PL0 Copyright (c) Steve Scherf et al.
# Submitted via: jetAudio 7
#
DISCID=3e11d216
DTITLE=Slum Village - Fantastic Vol. 2.10 [CD1]
DYEAR=2010
DGENRE=Hip-Hop
TTITLE0=TTITLE0=Intro
TTITLE1=TTITLE1=Conant Gardens
TTITLE2=TTITLE2=I Don't Know (feat. Jazzy Jeff)
TTITLE3=TTITLE3=Jealousy
TTITLE4=TTITLE4=Climax (Girl Sh**)
TTITLE5=TTITLE5=Hold Tight (Remix)(feat. Q-Tip)
TTITLE6=TTITLE6=Tell Me (feat. D'Angelo)
TTITLE7=TTITLE7=What It's All About (feat. Busta Rhymes)
TTITLE8=TTITLE8=Forth And Back (Remix)(feat. Kurupt)
TTITLE9=TTITLE9=Untitled/Fantastic
TTITLE10=TTITLE10=Fall In Love
TTITLE11=TTITLE11=Get Dis Money
TTITLE12=TTITLE12=CB4
TTITLE13=TTITLE13=Once Upon A Time (Remix)(feat. Pete Rock)
TTITLE14=TTITLE14=Players
TTITLE15=TTITLE15=Eyes Up
TTITLE16=TTITLE16=2U4U
TTITLE17=TTITLE17=Hustle (feat. Busta Rhymes)
TTITLE18=TTITLE18=Go Ladies
TTITLE19=TTITLE19=We Be Dim #1
TTITLE20=TTITLE20=We Be Dim #2
TTITLE21=TTITLE21=Get It Together
EXTD=
EXTT0=
EXTT1=
EXTT2=
EXTT3=
EXTT4=
EXTT5=
EXTT6=
EXTT7=
EXTT8=
EXTT9=
EXTT10=
EXTT11=
EXTT12=
EXTT13=
EXTT14=
EXTT15=
EXTT16=
EXTT17=
EXTT18=
EXTT19=
EXTT20=
EXTT21=
PLAYORDER=
